<svg xmlns="http://www.w3.org/2000/svg" width="447" height="118" viewBox="0 0 447 118" fill="none">
  <g filter="url(#filter0_d_729_22348)">
    <path fill-rule="evenodd" clip-rule="evenodd" d="M38.9702 15H29.5913H21.1109C18.3449 15 16.9597 18.3442 18.9156 20.3L29.5913 30.9757V87.9593C29.5913 93.6748 34.2247 98.3081 39.9402 98.3081H419.017C424.733 98.3081 429.366 93.6748 429.366 87.9593V25.3488C429.366 19.6333 424.733 15 419.017 15H38.9702Z" fill="white" shape-rendering="crispEdges"/>
    <path d="M18.9156 20.3L18.5497 20.6659L18.9156 20.3ZM29.5913 30.9757H30.1088V30.7614L29.9572 30.6098L29.5913 30.9757ZM29.5913 15.5174H38.9702V14.4826H29.5913V15.5174ZM21.1109 15.5174H29.5913V14.4826H21.1109V15.5174ZM19.2814 19.9341C17.6516 18.3042 18.8059 15.5174 21.1109 15.5174V14.4826C17.8839 14.4826 16.2679 18.3841 18.5497 20.6659L19.2814 19.9341ZM29.9572 30.6098L19.2814 19.9341L18.5497 20.6659L29.2254 31.3416L29.9572 30.6098ZM30.1088 87.9593V30.9757H29.0739V87.9593H30.1088ZM39.9402 97.7907C34.5104 97.7907 30.1088 93.389 30.1088 87.9593H29.0739C29.0739 93.9606 33.9389 98.8256 39.9402 98.8256V97.7907ZM419.017 97.7907H39.9402V98.8256H419.017V97.7907ZM428.849 87.9593C428.849 93.389 424.447 97.7907 419.017 97.7907V98.8256C425.019 98.8256 429.884 93.9606 429.884 87.9593H428.849ZM428.849 25.3488V87.9593H429.884V25.3488H428.849ZM419.017 15.5174C424.447 15.5174 428.849 19.9191 428.849 25.3488H429.884C429.884 19.3476 425.019 14.4826 419.017 14.4826V15.5174ZM38.9702 15.5174H419.017V14.4826H38.9702V15.5174Z" fill="black" fill-opacity="0.1"/>
  </g>
  <defs>
    <filter id="filter0_d_729_22348" x="0.923367" y="-0.00595045" width="445.519" height="117.459" filterUnits="userSpaceOnUse" color-interpolation-filters="sRGB">
      <feFlood flood-opacity="0" result="BackgroundImageFix"/>
      <feColorMatrix in="SourceAlpha" type="matrix" values="0 0 0 0 0 0 0 0 0 0 0 0 0 0 0 0 0 0 127 0" result="hardAlpha"/>
      <feOffset dy="2.06977"/>
      <feGaussianBlur stdDeviation="8.27907"/>
      <feComposite in2="hardAlpha" operator="out"/>
      <feColorMatrix type="matrix" values="0 0 0 0 0 0 0 0 0 0 0 0 0 0 0 0 0 0 0.06 0"/>
      <feBlend mode="normal" in2="BackgroundImageFix" result="effect1_dropShadow_729_22348"/>
      <feBlend mode="normal" in="SourceGraphic" in2="effect1_dropShadow_729_22348" result="shape"/>
    </filter>
  </defs>
</svg>