<svg xmlns="http://www.w3.org/2000/svg" width="443" height="358" viewBox="0 0 443 358" fill="none">
  <g filter="url(#filter0_d_729_22354)">
    <path fill-rule="evenodd" clip-rule="evenodd" d="M424.066 21.2355L406.599 38.7031V327.953C406.599 333.669 401.965 338.302 396.25 338.302H28.3486C22.6331 338.302 17.9998 333.669 17.9998 327.953V26.2844C17.9998 20.5689 22.6331 15.9356 28.3486 15.9356L404.012 15.9355H421.871C424.637 15.9355 426.022 19.2797 424.066 21.2355Z" fill="white" shape-rendering="crispEdges"/>
    <path d="M406.599 38.7031L406.233 38.3372L406.081 38.4888V38.7031H406.599ZM424.066 21.2355L424.432 21.6014V21.6014L424.066 21.2355ZM28.3486 15.9356V16.453V15.9356ZM404.012 15.9355V15.4181V15.9355ZM406.964 39.069L424.432 21.6014L423.7 20.8696L406.233 38.3372L406.964 39.069ZM406.081 38.7031V327.953H407.116V38.7031H406.081ZM406.081 327.953C406.081 333.383 401.68 337.784 396.25 337.784V338.819C402.251 338.819 407.116 333.954 407.116 327.953H406.081ZM396.25 337.784H28.3486V338.819H396.25V337.784ZM28.3486 337.784C22.9189 337.784 18.5172 333.383 18.5172 327.953H17.4823C17.4823 333.954 22.3474 338.819 28.3486 338.819V337.784ZM18.5172 327.953V26.2844H17.4823V327.953H18.5172ZM18.5172 26.2844C18.5172 20.8547 22.9189 16.453 28.3486 16.453V15.4181C22.3473 15.4181 17.4823 20.2831 17.4823 26.2844H18.5172ZM28.3486 16.453L404.012 16.453V15.4181L28.3486 15.4181V16.453ZM421.871 15.4181H404.012V16.453H421.871V15.4181ZM424.432 21.6014C426.714 19.3196 425.098 15.4181 421.871 15.4181V16.453C424.176 16.453 425.33 19.2398 423.7 20.8696L424.432 21.6014Z" fill="black" fill-opacity="0.1"/>
  </g>
  <defs>
    <filter id="filter0_d_729_22354" x="0.924206" y="0.929596" width="441.134" height="356.518" filterUnits="userSpaceOnUse" color-interpolation-filters="sRGB">
      <feFlood flood-opacity="0" result="BackgroundImageFix"/>
      <feColorMatrix in="SourceAlpha" type="matrix" values="0 0 0 0 0 0 0 0 0 0 0 0 0 0 0 0 0 0 127 0" result="hardAlpha"/>
      <feOffset dy="2.06977"/>
      <feGaussianBlur stdDeviation="8.27907"/>
      <feComposite in2="hardAlpha" operator="out"/>
      <feColorMatrix type="matrix" values="0 0 0 0 0 0 0 0 0 0 0 0 0 0 0 0 0 0 0.06 0"/>
      <feBlend mode="normal" in2="BackgroundImageFix" result="effect1_dropShadow_729_22354"/>
      <feBlend mode="normal" in="SourceGraphic" in2="effect1_dropShadow_729_22354" result="shape"/>
    </filter>
  </defs>
</svg>