<svg xmlns="http://www.w3.org/2000/svg" width="65" height="64" viewBox="0 0 65 64" fill="none">
  <path d="M46.6436 5.33301H18.69C16.5435 5.33298 14.7718 5.33295 13.3286 5.45086C11.8297 5.57333 10.4518 5.83617 9.15761 6.49561C7.15055 7.51826 5.51875 9.15005 4.4961 11.1571C3.83666 12.4513 3.57382 13.8292 3.45136 15.3281C3.40409 15.9066 3.37433 16.4863 3.35589 17.0666C3.30997 18.5122 3.287 19.235 3.57074 19.8239C3.81518 20.3312 4.24055 20.7703 4.73986 21.0307C5.31942 21.333 6.07967 21.333 7.60017 21.333H57.7335C59.254 21.333 60.0142 21.333 60.5938 21.0307C61.0931 20.7703 61.5185 20.3312 61.7629 19.8239C62.0467 19.235 62.0237 18.5122 61.9778 17.0667C61.9593 16.4863 61.9296 15.9066 61.8823 15.3281C61.7598 13.8292 61.497 12.4513 60.8376 11.1571C59.8149 9.15006 58.1831 7.51826 56.1761 6.49561C54.8818 5.83617 53.504 5.57333 52.005 5.45087C50.5619 5.33296 48.7901 5.33298 46.6436 5.33301Z" fill="#72C420"/>
  <path fill-rule="evenodd" clip-rule="evenodd" d="M62.0002 30.9329C62.0002 29.4395 62.0002 28.6928 61.7095 28.1224C61.4539 27.6206 61.0459 27.2127 60.5441 26.957C59.9737 26.6663 59.227 26.6663 57.7335 26.6663H7.60017C6.1067 26.6663 5.35996 26.6663 4.78953 26.957C4.28776 27.2127 3.87982 27.6206 3.62415 28.1224C3.3335 28.6928 3.3335 29.4395 3.3335 30.933V43.3098C3.33347 45.4564 3.33344 47.228 3.45136 48.6712C3.57382 50.1701 3.83666 51.548 4.4961 52.8422C5.51875 54.8493 7.15054 56.4811 9.15761 57.5037C10.4518 58.1632 11.8297 58.426 13.3286 58.5485C14.7719 58.6664 16.5436 58.6664 18.6902 58.6663L46.6434 58.6663C48.7901 58.6664 50.5618 58.6664 52.005 58.5485C53.504 58.426 54.8818 58.1632 56.1761 57.5037C58.1831 56.4811 59.8149 54.8493 60.8376 52.8422C61.497 51.548 61.7598 50.1701 61.8823 48.6712C62.0002 47.228 62.0002 45.4564 62.0002 43.3099V30.9329ZM36.1145 32.7807C37.1559 31.7393 38.8444 31.7393 39.8858 32.7807L46.5524 39.4474C47.5938 40.4888 47.5938 42.1772 46.5524 43.2186L39.8858 49.8853C38.8444 50.9267 37.1559 50.9267 36.1145 49.8853C35.0731 48.8439 35.0731 47.1555 36.1145 46.1141L40.8956 41.333L36.1145 36.552C35.0731 35.5106 35.0731 33.8221 36.1145 32.7807ZM29.2191 36.552C30.2605 35.5106 30.2605 33.8221 29.2191 32.7807C28.1777 31.7393 26.4893 31.7393 25.4479 32.7807L18.7812 39.4474C17.7398 40.4888 17.7398 42.1772 18.7812 43.2186L25.4479 49.8853C26.4893 50.9267 28.1777 50.9267 29.2191 49.8853C30.2605 48.8439 30.2605 47.1555 29.2191 46.1141L24.4381 41.333L29.2191 36.552Z" fill="#72C420"/>
</svg>