<svg xmlns="http://www.w3.org/2000/svg" width="24" height="24" viewBox="0 0 24 24" fill="none">
  <g clip-path="url(#clip0_729_22057)">
    <path d="M11.9998 0C8.74326 0 8.33376 0.015 7.05426 0.072C5.77476 0.132 4.90326 0.333 4.13976 0.63C3.3389 0.931229 2.61349 1.40374 2.01426 2.0145C1.40387 2.61404 0.931417 3.33936 0.629756 4.14C0.332756 4.902 0.130256 5.775 0.0717559 7.05C0.0147559 8.3325 -0.000244141 8.7405 -0.000244141 12.0015C-0.000244141 15.2595 0.0147559 15.6675 0.0717559 16.947C0.131756 18.225 0.332756 19.0965 0.629756 19.86C0.937256 20.649 1.34676 21.318 2.01426 21.9855C2.68026 22.653 3.34926 23.064 4.13826 23.37C4.90326 23.667 5.77326 23.8695 7.05126 23.928C8.33226 23.985 8.74026 24 11.9998 24C15.2593 24 15.6658 23.985 16.9468 23.928C18.2233 23.868 19.0978 23.667 19.8613 23.37C20.6616 23.0686 21.3865 22.5961 21.9853 21.9855C22.6528 21.318 23.0623 20.649 23.3698 19.86C23.6653 19.0965 23.8678 18.225 23.9278 16.947C23.9848 15.6675 23.9998 15.2595 23.9998 12C23.9998 8.7405 23.9848 8.3325 23.9278 7.0515C23.8678 5.775 23.6653 4.902 23.3698 4.14C23.0681 3.33934 22.5957 2.61401 21.9853 2.0145C21.3862 1.40351 20.6607 0.930968 19.8598 0.63C19.0948 0.333 18.2218 0.1305 16.9453 0.072C15.6643 0.015 15.2578 0 11.9968 0H12.0013H11.9998ZM10.9243 2.163H12.0013C15.2053 2.163 15.5848 2.1735 16.8493 2.232C18.0193 2.2845 18.6553 2.481 19.0783 2.6445C19.6378 2.862 20.0383 3.123 20.4583 3.543C20.8783 3.963 21.1378 4.362 21.3553 4.923C21.5203 5.3445 21.7153 5.9805 21.7678 7.1505C21.8263 8.415 21.8383 8.7945 21.8383 11.997C21.8383 15.1995 21.8263 15.5805 21.7678 16.845C21.7153 18.015 21.5188 18.6495 21.3553 19.0725C21.1629 19.5935 20.8558 20.0647 20.4568 20.451C20.0368 20.871 19.6378 21.1305 19.0768 21.348C18.6568 21.513 18.0208 21.708 16.8493 21.762C15.5848 21.819 15.2053 21.8325 12.0013 21.8325C8.79726 21.8325 8.41626 21.819 7.15176 21.762C5.98176 21.708 5.34726 21.513 4.92426 21.348C4.403 21.1559 3.93144 20.8494 3.54426 20.451C3.14488 20.0641 2.83734 19.5925 2.64426 19.071C2.48076 18.6495 2.28426 18.0135 2.23176 16.8435C2.17476 15.579 2.16276 15.1995 2.16276 11.994C2.16276 8.79 2.17476 8.412 2.23176 7.1475C2.28576 5.9775 2.48076 5.3415 2.64576 4.9185C2.86326 4.359 3.12426 3.9585 3.54426 3.5385C3.96426 3.1185 4.36326 2.859 4.92426 2.6415C5.34726 2.4765 5.98176 2.2815 7.15176 2.2275C8.25876 2.1765 8.68776 2.1615 10.9243 2.16V2.163ZM18.4063 4.155C18.2172 4.155 18.0299 4.19225 17.8552 4.26461C17.6805 4.33698 17.5217 4.44305 17.388 4.57677C17.2543 4.71048 17.1482 4.86923 17.0759 5.04394C17.0035 5.21864 16.9663 5.4059 16.9663 5.595C16.9663 5.7841 17.0035 5.97135 17.0759 6.14606C17.1482 6.32077 17.2543 6.47952 17.388 6.61323C17.5217 6.74695 17.6805 6.85302 17.8552 6.92539C18.0299 6.99775 18.2172 7.035 18.4063 7.035C18.7882 7.035 19.1544 6.88329 19.4245 6.61323C19.6945 6.34318 19.8463 5.97691 19.8463 5.595C19.8463 5.21309 19.6945 4.84682 19.4245 4.57677C19.1544 4.30671 18.7882 4.155 18.4063 4.155ZM12.0013 5.838C11.1839 5.82525 10.3721 5.97523 9.61322 6.27921C8.85435 6.58319 8.16353 7.03511 7.58098 7.60863C6.99844 8.18216 6.5358 8.86585 6.22002 9.61989C5.90423 10.3739 5.74161 11.1833 5.74161 12.0007C5.74161 12.8182 5.90423 13.6276 6.22002 14.3816C6.5358 15.1356 6.99844 15.8193 7.58098 16.3929C8.16353 16.9664 8.85435 17.4183 9.61322 17.7223C10.3721 18.0263 11.1839 18.1763 12.0013 18.1635C13.6191 18.1383 15.1621 17.4779 16.2972 16.3249C17.4324 15.1719 18.0686 13.6188 18.0686 12.0007C18.0686 10.3827 17.4324 8.82962 16.2972 7.67662C15.1621 6.52363 13.6191 5.86324 12.0013 5.838ZM12.0013 7.9995C13.0623 7.9995 14.0798 8.42098 14.83 9.17122C15.5803 9.92146 16.0018 10.939 16.0018 12C16.0018 13.061 15.5803 14.0785 14.83 14.8288C14.0798 15.579 13.0623 16.0005 12.0013 16.0005C10.9403 16.0005 9.92271 15.579 9.17247 14.8288C8.42224 14.0785 8.00076 13.061 8.00076 12C8.00076 10.939 8.42224 9.92146 9.17247 9.17122C9.92271 8.42098 10.9403 7.9995 12.0013 7.9995Z" fill="#2E2E2E"/>
  </g>
  <defs>
    <clipPath id="clip0_729_22057">
      <rect width="24" height="24" fill="white"/>
    </clipPath>
  </defs>
</svg>