<svg xmlns="http://www.w3.org/2000/svg" width="65" height="64" viewBox="0 0 65 64" fill="none">
  <path fill-rule="evenodd" clip-rule="evenodd" d="M19.4306 5.33301H45.2361C46.6418 5.33297 47.8546 5.33293 48.8534 5.41454C49.9077 5.50067 50.9562 5.69085 51.9653 6.20496C53.4706 6.97195 54.6944 8.1958 55.4614 9.70109C55.9755 10.7101 56.1657 11.7587 56.2518 12.8129C56.3334 13.8118 56.3334 15.0245 56.3333 16.4302V53.333H59C60.4728 53.333 61.6667 54.5269 61.6667 55.9997C61.6667 57.4724 60.4728 58.6663 59 58.6663H5.66667C4.19391 58.6663 3 57.4724 3 55.9997C3 54.5269 4.19391 53.333 5.66667 53.333H8.33334L8.33334 16.4302C8.33329 15.0245 8.33325 13.8118 8.41486 12.8129C8.50099 11.7587 8.69117 10.7101 9.20529 9.70109C9.97227 8.1958 11.1961 6.97195 12.7014 6.20496C13.7104 5.69085 14.759 5.50067 15.8133 5.41454C16.8121 5.33293 18.0249 5.33297 19.4306 5.33301ZM19.6667 15.9997C18.1939 15.9997 17 17.1936 17 18.6663C17 20.1391 18.1939 21.333 19.6667 21.333H27C28.4728 21.333 29.6667 20.1391 29.6667 18.6663C29.6667 17.1936 28.4728 15.9997 27 15.9997H19.6667ZM19.6667 26.6663C18.1939 26.6663 17 27.8603 17 29.333C17 30.8058 18.1939 31.9997 19.6667 31.9997H27C28.4728 31.9997 29.6667 30.8058 29.6667 29.333C29.6667 27.8603 28.4728 26.6663 27 26.6663H19.6667ZM17 39.9997C17 38.5269 18.1939 37.333 19.6667 37.333H27C28.4728 37.333 29.6667 38.5269 29.6667 39.9997C29.6667 41.4724 28.4728 42.6663 27 42.6663H19.6667C18.1939 42.6663 17 41.4724 17 39.9997ZM37.6667 15.9997C36.1939 15.9997 35 17.1936 35 18.6663C35 20.1391 36.1939 21.333 37.6667 21.333H45C46.4728 21.333 47.6667 20.1391 47.6667 18.6663C47.6667 17.1936 46.4728 15.9997 45 15.9997H37.6667ZM35 29.333C35 27.8603 36.1939 26.6663 37.6667 26.6663H45C46.4728 26.6663 47.6667 27.8603 47.6667 29.333C47.6667 30.8058 46.4728 31.9997 45 31.9997H37.6667C36.1939 31.9997 35 30.8058 35 29.333ZM37.6667 37.333C36.1939 37.333 35 38.5269 35 39.9997C35 41.4724 36.1939 42.6663 37.6667 42.6663H45C46.4728 42.6663 47.6667 41.4724 47.6667 39.9997C47.6667 38.5269 46.4728 37.333 45 37.333H37.6667Z" fill="#72C420"/>
</svg>