<svg xmlns="http://www.w3.org/2000/svg" width="116" height="32" viewBox="0 0 116 32" fill="none">
  <path d="M16.9719 17.6776C17.0234 19.6677 16.3582 21.6097 15.0985 23.1468C13.8496 24.6541 12.1797 25.4077 10.0885 25.4074C9.21747 25.4116 8.35572 25.2275 7.56173 24.8678C6.82238 24.552 6.1806 24.0433 5.70294 23.3945H5.64486V31.9997H0.881714V10.4728H5.41251V12.2521H5.49965C5.99887 11.5815 6.65131 11.0413 7.402 10.677C8.24595 10.2592 9.1768 10.0493 10.1176 10.0644C11.0573 10.0357 11.9913 10.2216 12.8491 10.6081C13.7068 10.9946 14.4661 11.5718 15.0695 12.2958C16.3414 13.7935 17.0188 15.7096 16.9719 17.6776ZM12.3539 17.6776C12.3748 16.7271 12.0553 15.8008 11.4536 15.0669C11.1495 14.7034 10.7657 14.4155 10.3324 14.2258C9.89912 14.036 9.42796 13.9495 8.95582 13.9731C8.4787 13.9597 8.00477 14.0552 7.56963 14.2522C7.13451 14.4492 6.7495 14.7427 6.44355 15.1107C5.81627 15.8317 5.47059 16.7566 5.47059 17.714C5.47059 18.6715 5.81627 19.5964 6.44355 20.3174C6.75175 20.6817 7.13754 20.9717 7.5724 21.1661C8.00725 21.3606 8.48004 21.4543 8.95582 21.4404C9.42933 21.4637 9.9017 21.3755 10.3353 21.1831C10.7689 20.9907 11.1519 20.6992 11.4536 20.332C12.0575 19.5823 12.3766 18.6416 12.3539 17.6776Z" fill="#434242"/>
  <path d="M27.806 10.1815L27.6026 14.3819C27.2039 14.2809 26.794 14.2319 26.3828 14.236C25.2399 14.236 24.3879 14.5909 23.8269 15.3007C23.2975 15.9241 22.9998 16.7129 22.9847 17.5321V24.9995H18.2216V10.4732H22.8104V12.5734H22.8686C23.2235 11.8295 23.7764 11.1986 24.4659 10.7503C25.1557 10.2956 25.9644 10.057 26.7894 10.0648C27.1322 10.0493 27.4754 10.0887 27.806 10.1815Z" fill="#434242"/>
  <path d="M41.8047 17.9117C41.8047 18.4367 41.7951 18.8159 41.7757 19.0493H31.291C31.331 19.4371 31.4526 19.8119 31.6479 20.1489C31.8432 20.4859 32.1076 20.7772 32.4237 21.0036C33.0866 21.5237 33.9061 21.8015 34.7472 21.7912C36.1413 21.7912 37.2063 21.2856 37.942 20.2744L41.2529 22.3745C39.8396 24.4358 37.6515 25.4664 34.6892 25.4663C32.4237 25.4663 30.531 24.7808 29.0111 23.4101C27.4909 22.0392 26.7309 20.1675 26.7311 17.795C26.7311 15.4615 27.4718 13.58 28.953 12.1508C30.4342 10.7215 32.2979 10.0068 34.5438 10.0068C36.7122 10.0068 38.4645 10.7118 39.8008 12.1216C41.1368 13.5318 41.8047 15.4617 41.8047 17.9117ZM31.291 16.074H37.4193C37.4432 15.3405 37.1769 14.6273 36.6786 14.0906C36.1849 13.5655 35.483 13.3029 34.573 13.3029C33.7427 13.2811 32.9344 13.5725 32.3075 14.1197C32.016 14.36 31.7756 14.6569 31.6009 14.9927C31.4262 15.3286 31.3208 15.6964 31.291 16.074Z" fill="#434242"/>
  <path d="M59.1145 17.6776C59.1661 19.6677 58.5009 21.6097 57.2412 23.1468C55.9924 24.6541 54.3223 25.4077 52.2312 25.4074C51.3602 25.4116 50.4984 25.2275 49.7044 24.8678C48.965 24.552 48.3233 24.0433 47.8456 23.3945H47.7875V31.9997H43.0244V10.4728H47.5552V12.2521H47.6423C48.1415 11.5815 48.794 11.0413 49.5447 10.677C50.3886 10.2592 51.3195 10.0493 52.2602 10.0644C53.2 10.0357 54.134 10.2216 54.9918 10.6081C55.8496 10.9946 56.6088 11.5718 57.2122 12.2958C58.4841 13.7935 59.1614 15.7096 59.1145 17.6776ZM54.4966 17.6776C54.5175 16.7271 54.198 15.8008 53.5963 15.0669C53.2921 14.7034 52.9085 14.4155 52.4751 14.2258C52.0418 14.036 51.5706 13.9495 51.0984 13.9731C50.6214 13.9597 50.1474 14.0552 49.7124 14.2522C49.2772 14.4492 48.8922 14.7427 48.5863 15.1107C47.959 15.8317 47.6133 16.7566 47.6133 17.714C47.6133 18.6715 47.959 19.5964 48.5863 20.3174C48.8945 20.6817 49.2802 20.9717 49.7151 21.1661C50.1499 21.3606 50.6227 21.4543 51.0984 21.4404C51.572 21.4637 52.0443 21.3755 52.478 21.1831C52.9117 20.9907 53.2945 20.6992 53.5963 20.332C54.2002 19.5823 54.5192 18.6416 54.4966 17.6776Z" fill="#434242"/>
  <path d="M62.57 15.0531L60.1594 12.4571C61.8824 10.8236 64.0315 10.0068 66.607 10.0068C68.9887 10.0068 70.6925 10.6145 71.7188 11.8299C72.7446 13.0456 73.2577 14.995 73.258 17.6783V24.9998H68.9015V23.4538H68.8143C68.4193 24.0773 67.8407 24.5615 67.1588 24.8393C66.3912 25.1822 65.5594 25.3563 64.7192 25.3498C63.9041 25.3559 63.0938 25.2228 62.3231 24.9561C61.5352 24.6627 60.8456 24.1522 60.3336 23.483C59.7378 22.7193 59.4293 21.7691 59.4623 20.7994C59.4623 17.5324 62.5603 15.8991 68.7563 15.8991V15.6657C68.7727 15.3656 68.7149 15.0662 68.5883 14.7939C68.4615 14.5216 68.2699 14.285 68.0302 14.1051C67.4758 13.7244 66.8132 13.5351 66.1424 13.5655C64.8039 13.5741 63.5218 14.108 62.57 15.0531ZM68.9015 19.1659V18.6701H68.2915C65.3291 18.6701 63.8479 19.3312 63.8479 20.6535C63.8358 20.8793 63.8863 21.1038 63.994 21.3023C64.1017 21.5007 64.2623 21.6649 64.4579 21.7769C64.8998 22.0291 65.4019 22.155 65.91 22.1412C66.8582 22.1412 67.594 21.8739 68.1173 21.3391C68.3862 21.048 68.5941 20.7056 68.7288 20.3324C68.8635 19.9591 68.9223 19.5624 68.9015 19.1659Z" fill="#434242"/>
  <path d="M79.8793 10.4736H75.1161V24.9999H79.8793V10.4736Z" fill="#434242"/>
  <path d="M91.4972 10.1815L91.2939 14.3819C90.8952 14.2809 90.4853 14.2319 90.0741 14.236C88.9314 14.236 88.0796 14.5909 87.5182 15.3007C86.9888 15.9241 86.691 16.7129 86.676 17.5321V24.9995H81.9128V10.4732H86.5017V12.5734H86.5601C86.9149 11.8295 87.4677 11.1985 88.1572 10.7503C88.847 10.2955 89.6558 10.0569 90.4809 10.0648C90.8238 10.0493 91.1668 10.0887 91.4972 10.1815Z" fill="#434242"/>
  <path d="M105.497 17.9117C105.497 18.4367 105.487 18.8159 105.468 19.0493H94.9828C95.0227 19.4371 95.1444 19.812 95.3396 20.149C95.5349 20.486 95.7994 20.7773 96.1155 21.0036C96.7785 21.5237 97.598 21.8015 98.439 21.7912C99.8332 21.7912 100.898 21.2856 101.634 20.2744L104.945 22.3745C103.531 24.4358 101.343 25.4664 98.381 25.4663C96.1155 25.4663 94.2228 24.7808 92.7029 23.4101C91.1827 22.0392 90.4227 20.1675 90.423 17.795C90.423 15.4615 91.1637 13.58 92.6449 12.1508C94.126 10.7215 95.9897 10.0068 98.2358 10.0068C100.404 10.0068 102.156 10.7118 103.493 12.1216C104.829 13.5318 105.497 15.4617 105.497 17.9117ZM94.9828 16.074H101.111C101.135 15.3405 100.869 14.6273 100.371 14.0906C99.8767 13.5655 99.1748 13.3029 98.2648 13.3029C97.4345 13.2811 96.6263 13.5725 95.9993 14.1197C95.7078 14.36 95.4674 14.6569 95.2927 14.9927C95.118 15.3286 95.0126 15.6963 94.9828 16.074Z" fill="#434242"/>
  <path d="M77.499 0.518555C76.709 0.518555 75.9367 0.753845 75.2798 1.19467C74.6229 1.63549 74.1109 2.26206 73.8086 2.99514C73.5063 3.7282 73.4271 4.53484 73.5813 5.31307C73.7354 6.09129 74.1159 6.80613 74.6744 7.3672C75.2331 7.92827 75.9449 8.31036 76.7198 8.46516C77.4946 8.61996 78.2978 8.54051 79.0277 8.23685C79.7576 7.93321 80.3815 7.41901 80.8204 6.75926C81.2593 6.09952 81.4937 5.32387 81.4937 4.53041C81.4937 4.00355 81.3903 3.48186 81.1896 2.99512C80.9889 2.50837 80.6946 2.0661 80.3236 1.69356C79.9527 1.32102 79.5124 1.02551 79.0277 0.823905C78.5431 0.622297 78.0237 0.518539 77.499 0.518555Z" fill="#5498EE"/>
  <path d="M114.575 3.81142C114.525 2.75103 114.057 1.75424 113.274 1.04033C112.492 0.326424 111.459 -0.0461437 110.403 0.00457579C107.557 0.141509 107.731 2.48071 104.885 2.61765C102.039 2.75458 101.989 0.409433 99.1434 0.546365C98.6206 0.571495 98.1078 0.699794 97.6345 0.923939C97.161 1.14809 96.7362 1.46368 96.3842 1.85272C96.0323 2.24176 95.76 2.69661 95.583 3.19132C95.4062 3.68601 95.3279 4.21088 95.3529 4.73592C95.3779 5.26097 95.5057 5.77594 95.7289 6.2514C95.9521 6.72687 96.2663 7.15354 96.6537 7.50704C97.041 7.86053 97.494 8.13394 97.9865 8.31166C98.4791 8.48937 99.0016 8.5679 99.5244 8.54277C102.371 8.40611 102.197 6.0669 105.043 5.92997C106.099 5.87921 107.132 6.25178 107.914 6.96569C108.696 7.67961 109.164 8.6764 109.215 9.73682C109.351 12.5952 107.016 12.6448 107.152 15.5034C107.177 16.0284 107.305 16.5434 107.528 17.0188C107.752 17.4944 108.066 17.921 108.453 18.2745C108.841 18.628 109.293 18.9013 109.786 19.0791C110.279 19.2568 110.801 19.3352 111.324 19.3101C111.847 19.285 112.36 19.1566 112.833 18.9325C113.306 18.7083 113.731 18.3928 114.083 18.0036C114.435 17.6146 114.707 17.1598 114.884 16.665C115.061 16.1703 115.139 15.6455 115.114 15.1204C114.978 12.2618 112.649 12.4366 112.513 9.57801C112.376 6.7197 114.712 6.67 114.575 3.81142Z" fill="#5498EE"/>
</svg>