<svg xmlns="http://www.w3.org/2000/svg" width="20" height="20" viewBox="0 0 20 20" fill="none">
  <path d="M8.75036 10.0007H4.16702M4.09648 10.2436L2.15071 16.0558C1.99785 16.5125 1.92142 16.7408 1.97627 16.8814C2.0239 17.0035 2.1262 17.096 2.25244 17.1313C2.3978 17.1718 2.61736 17.073 3.05647 16.8754L16.9827 10.6086C17.4113 10.4158 17.6256 10.3193 17.6918 10.1854C17.7494 10.069 17.7494 9.9324 17.6918 9.81601C17.6256 9.68204 17.4113 9.58561 16.9827 9.39273L3.05161 3.12378C2.61383 2.92678 2.39493 2.82828 2.24971 2.86869C2.1236 2.90378 2.0213 2.9961 1.97351 3.11797C1.91847 3.2583 1.99408 3.48611 2.14531 3.94174L4.09702 9.82195C4.12299 9.90021 4.13598 9.93934 4.14111 9.97935C4.14565 10.0149 4.14561 10.0508 4.14097 10.0863C4.13574 10.1263 4.12265 10.1654 4.09648 10.2436Z" stroke="white" stroke-width="1.66667" stroke-linecap="round" stroke-linejoin="round"/>
</svg>