<svg xmlns="http://www.w3.org/2000/svg" width="72" height="73" viewBox="0 0 72 73" fill="none">
  <path d="M27 36.3027L33 42.3027L46.5 28.8027M53.7035 15.2983C54.3213 16.7923 55.5071 17.9799 57.0002 18.6L62.2357 20.7687C63.7298 21.3876 64.9169 22.5747 65.5358 24.0689C66.1547 25.5631 66.1547 27.242 65.5358 28.7362L63.3688 33.9681C62.7496 35.463 62.7487 37.1436 63.3707 38.6377L65.534 43.8681C65.8408 44.6082 65.9988 45.4014 65.9989 46.2026C65.9991 47.0037 65.8414 47.797 65.5348 48.5372C65.2282 49.2773 64.7788 49.9498 64.2122 50.5162C63.6457 51.0826 62.9731 51.5318 62.2328 51.8382L57.0011 54.0053C55.507 54.6231 54.3195 55.8089 53.6995 57.3021L51.5308 62.5378C50.9119 64.032 49.7249 65.2191 48.2307 65.838C46.7366 66.457 45.0578 66.457 43.5636 65.838L38.3319 63.6709C36.8377 63.0535 35.1595 63.0547 33.6662 63.6744L28.4307 65.84C26.9374 66.4575 25.26 66.457 23.7671 65.8385C22.2742 65.2201 21.0878 64.0344 20.4684 62.5418L18.2992 57.3045C17.6814 55.8104 16.4956 54.6228 15.0025 54.0028L9.76699 51.8341C8.2735 51.2155 7.08677 50.0291 6.46765 48.5357C5.84853 47.0424 5.84768 45.3643 6.46531 43.8704L8.63239 38.6384C9.24976 37.1441 9.2485 35.4659 8.62889 33.9726L6.46492 28.7331C6.15811 27.993 6.00013 27.1998 6 26.3986C5.99987 25.5975 6.1576 24.8042 6.46417 24.064C6.77074 23.3239 7.22014 22.6514 7.7867 22.085C8.35326 21.5186 9.02587 21.0694 9.7661 20.763L14.9979 18.5959C16.4906 17.9786 17.6775 16.7943 18.2979 15.3029L20.4665 10.0672C21.0854 8.57297 22.2725 7.38584 23.7667 6.76692C25.2608 6.14801 26.9396 6.14801 28.4337 6.76692L33.6655 8.93408C35.1597 9.55147 36.8379 9.55021 38.3312 8.93057L43.5689 6.77028C45.0629 6.15171 46.7413 6.15184 48.2351 6.77063C49.729 7.38943 50.9159 8.57622 51.5349 10.07L53.7042 15.3073L53.7035 15.2983Z" stroke="#72C420" stroke-width="4" stroke-linecap="round" stroke-linejoin="round"/>
</svg>