<svg xmlns="http://www.w3.org/2000/svg" width="72" height="73" viewBox="0 0 72 73" fill="none">
  <path d="M14.9998 39.3027C14.9998 29.3616 23.0587 21.3027 32.9998 21.3027M14.9998 39.3027C14.9998 44.2479 16.994 48.7273 20.222 51.9806C20.5333 52.2944 20.689 52.4513 20.7809 52.6021C20.8686 52.7461 20.9196 52.87 20.9588 53.0339C20.9998 53.2057 20.9998 53.4012 20.9998 53.7922V60.9027C20.9998 61.7428 20.9998 62.1629 21.1633 62.4837C21.3071 62.766 21.5366 62.9954 21.8188 63.1392C22.1397 63.3027 22.5597 63.3027 23.3998 63.3027H29.0998C29.9399 63.3027 30.3599 63.3027 30.6808 63.1392C30.963 62.9954 31.1925 62.766 31.3363 62.4837C31.4998 62.1629 31.4998 61.7428 31.4998 60.9027V59.7027C31.4998 58.8627 31.4998 58.4426 31.6633 58.1217C31.8071 57.8395 32.0366 57.61 32.3188 57.4662C32.6397 57.3027 33.0597 57.3027 33.8998 57.3027H38.0998C38.9399 57.3027 39.3599 57.3027 39.6808 57.4662C39.963 57.61 40.1925 57.8395 40.3363 58.1217C40.4998 58.4426 40.4998 58.8627 40.4998 59.7027V60.9027C40.4998 61.7428 40.4998 62.1629 40.6633 62.4837C40.8071 62.766 41.0366 62.9954 41.3188 63.1392C41.6397 63.3027 42.0597 63.3027 42.8998 63.3027H48.6C49.4401 63.3027 49.8601 63.3027 50.181 63.1392C50.4632 62.9954 50.6927 62.766 50.8365 62.4837C51 62.1629 51 61.7428 51 60.9027V57.9757C51 57.3695 51 57.0664 51.0863 56.8231C51.169 56.5899 51.2732 56.4267 51.4499 56.2535C51.6342 56.0727 51.9465 55.9278 52.5711 55.6378C55.5177 54.2698 58.0321 52.1279 59.8534 49.4732C60.1736 49.0064 60.3337 48.773 60.5048 48.6351C60.6683 48.5033 60.815 48.426 61.0162 48.3657C61.2267 48.3027 61.4765 48.3027 61.9762 48.3027H63.6C64.4401 48.3027 64.8601 48.3027 65.181 48.1392C65.4632 47.9954 65.6927 47.766 65.8365 47.4837C66 47.1629 66 46.7428 66 45.9027V35.66C66 34.8602 66 34.4603 65.8514 34.1518C65.704 33.8457 65.457 33.5987 65.1509 33.4513C64.8424 33.3027 64.4425 33.3027 63.6428 33.3027C63.0639 33.3027 62.7744 33.3027 62.5413 33.2241C62.2899 33.1394 62.1136 33.0267 61.9312 32.834C61.7621 32.6554 61.624 32.3567 61.3478 31.7592C60.4614 29.8414 59.2475 28.1061 57.7778 26.6248C57.4664 26.3111 57.3108 26.1542 57.2189 26.0034C57.1312 25.8594 57.0802 25.7355 57.041 25.5716C57 25.3997 57 25.2043 57 24.8133V21.4845C57 20.4043 57 19.8643 56.7751 19.5013C56.578 19.1833 56.2693 18.9504 55.9094 18.8483C55.4985 18.7317 54.9793 18.8801 53.9407 19.1768L46.823 21.2104C46.702 21.245 46.6415 21.2622 46.5801 21.2744C46.5255 21.2851 46.4703 21.2929 46.4148 21.2975C46.3524 21.3027 46.289 21.3027 46.1622 21.3027H32.9998M14.9998 39.3027H12C8.68629 39.3027 6 36.6164 6 33.3027C6 31.0819 7.2066 29.1429 9 28.1054M32.9998 21.3027H44.8937C44.9637 20.8128 45 20.312 45 19.8027C45 14.0037 40.299 9.30273 34.5 9.30273C28.701 9.30273 24 14.0037 24 19.8027C24 21.0543 24.219 22.2548 24.6207 23.3679C27.1234 22.0492 29.9743 21.3027 32.9998 21.3027Z" stroke="#72C420" stroke-width="4" stroke-linecap="round" stroke-linejoin="round"/>
</svg>