<svg xmlns="http://www.w3.org/2000/svg" width="72" height="73" viewBox="0 0 72 73" fill="none">
  <path d="M66 27.3027H6M42 52.8027L49.5 45.3027L42 37.8027M30 37.8027L22.5 45.3027L30 52.8027M6 23.7027L6 48.9027C6 53.9432 6 56.4634 6.98094 58.3886C7.8438 60.0821 9.22063 61.4589 10.9141 62.3218C12.8393 63.3027 15.3595 63.3027 20.4 63.3027H51.6C56.6405 63.3027 59.1607 63.3027 61.0859 62.3218C62.7794 61.4589 64.1562 60.0821 65.0191 58.3886C66 56.4634 66 53.9432 66 48.9027V23.7027C66 18.6623 66 16.142 65.0191 14.2168C64.1562 12.5234 62.7794 11.1465 61.0859 10.2837C59.1607 9.30274 56.6405 9.30274 51.6 9.30274L20.4 9.30273C15.3595 9.30273 12.8393 9.30273 10.9141 10.2837C9.22063 11.1465 7.8438 12.5234 6.98094 14.2168C6 16.142 6 18.6623 6 23.7027Z" stroke="#72C420" stroke-width="4" stroke-linecap="round" stroke-linejoin="round"/>
</svg>