<svg xmlns="http://www.w3.org/2000/svg" width="87" height="22" viewBox="0 0 87 22" fill="none">
  <path d="M13.0726 8.63015C12.9454 8.18772 12.7666 7.79682 12.5363 7.45742C12.306 7.11197 12.0241 6.82106 11.6908 6.58469C11.3635 6.34227 10.9878 6.15742 10.5635 6.03015C10.1454 5.90288 9.68172 5.83924 9.17263 5.83924C8.22111 5.83924 7.38475 6.0756 6.66354 6.54833C5.94839 7.02106 5.39081 7.70894 4.99081 8.61197C4.59081 9.50894 4.39081 10.6059 4.39081 11.9029C4.39081 13.1998 4.58778 14.3029 4.98172 15.212C5.37566 16.1211 5.93324 16.815 6.65445 17.2938C7.37566 17.7665 8.22717 18.0029 9.20899 18.0029C10.0999 18.0029 10.8605 17.8453 11.4908 17.5301C12.1272 17.2089 12.612 16.7574 12.9454 16.1756C13.2847 15.5938 13.4544 14.9059 13.4544 14.112L14.2544 14.2301H9.45445V11.2665H17.2454V13.612C17.2454 15.2483 16.8999 16.6544 16.209 17.8301C15.5181 18.9998 14.5666 19.9029 13.3544 20.5392C12.1423 21.1695 10.7544 21.4847 9.19081 21.4847C7.44536 21.4847 5.91202 21.0998 4.59081 20.3301C3.2696 19.5544 2.2393 18.4544 1.4999 17.0301C0.766569 15.5998 0.399902 13.9029 0.399902 11.9392C0.399902 10.4301 0.618084 9.08469 1.05445 7.90288C1.49687 6.715 2.11505 5.70894 2.90899 4.8847C3.70293 4.06045 4.62717 3.43318 5.68172 3.00288C6.73627 2.57257 7.87869 2.35742 9.10899 2.35742C10.1635 2.35742 11.1454 2.51197 12.0544 2.82106C12.9635 3.12409 13.7696 3.55439 14.4726 4.11197C15.1817 4.66954 15.7605 5.33318 16.209 6.10288C16.6575 6.86651 16.9454 7.70894 17.0726 8.63015H13.0726Z" fill="#2E2E2E"/>
  <path d="M18.8494 21.2301V7.26651H22.604V9.70288H22.7494C23.004 8.83621 23.4313 8.18166 24.0313 7.73924C24.6313 7.29075 25.3222 7.06651 26.104 7.06651C26.2979 7.06651 26.507 7.07863 26.7313 7.10288C26.9555 7.12712 27.1525 7.16045 27.3222 7.20288V10.6392C27.1404 10.5847 26.8888 10.5362 26.5676 10.4938C26.2464 10.4514 25.9525 10.4301 25.6858 10.4301C25.1161 10.4301 24.607 10.5544 24.1585 10.8029C23.7161 11.0453 23.3646 11.3847 23.104 11.8211C22.8494 12.2574 22.7222 12.7605 22.7222 13.3301V21.2301H18.8494Z" fill="#2E2E2E"/>
  <path d="M31.6263 21.4938C30.7353 21.4938 29.9414 21.3392 29.2444 21.0301C28.5475 20.715 27.996 20.2514 27.5899 19.6392C27.1899 19.0211 26.9899 18.2514 26.9899 17.3301C26.9899 16.5544 27.1323 15.9029 27.4172 15.3756C27.702 14.8483 28.0899 14.4241 28.5808 14.1029C29.0717 13.7817 29.6293 13.5392 30.2535 13.3756C30.8838 13.212 31.5444 13.0968 32.2354 13.0301C33.0475 12.9453 33.702 12.8665 34.199 12.7938C34.696 12.715 35.0566 12.5998 35.2808 12.4483C35.505 12.2968 35.6172 12.0726 35.6172 11.7756V11.7211C35.6172 11.1453 35.4354 10.6998 35.0717 10.3847C34.7141 10.0695 34.205 9.91197 33.5444 9.91197C32.8475 9.91197 32.2929 10.0665 31.8808 10.3756C31.4687 10.6786 31.196 11.0605 31.0626 11.5211L27.4808 11.2301C27.6626 10.3817 28.0202 9.64833 28.5535 9.03015C29.0869 8.40591 29.7747 7.92712 30.6172 7.59378C31.4657 7.25439 32.4475 7.08469 33.5626 7.08469C34.3384 7.08469 35.0808 7.1756 35.7899 7.35742C36.505 7.53924 37.1384 7.82106 37.6899 8.20288C38.2475 8.58469 38.6869 9.0756 39.0081 9.6756C39.3293 10.2695 39.4899 10.9817 39.4899 11.812V21.2301H35.8172V19.2938H35.7081C35.4838 19.7301 35.1838 20.115 34.8081 20.4483C34.4323 20.7756 33.9808 21.0332 33.4535 21.2211C32.9263 21.4029 32.3172 21.4938 31.6263 21.4938ZM32.7354 18.8211C33.305 18.8211 33.8081 18.7089 34.2444 18.4847C34.6808 18.2544 35.0232 17.9453 35.2717 17.5574C35.5202 17.1695 35.6444 16.7301 35.6444 16.2392V14.7574C35.5232 14.8362 35.3566 14.9089 35.1444 14.9756C34.9384 15.0362 34.705 15.0938 34.4444 15.1483C34.1838 15.1968 33.9232 15.2423 33.6626 15.2847C33.402 15.3211 33.1657 15.3544 32.9535 15.3847C32.499 15.4514 32.102 15.5574 31.7626 15.7029C31.4232 15.8483 31.1596 16.0453 30.9717 16.2938C30.7838 16.5362 30.6899 16.8392 30.6899 17.2029C30.6899 17.7301 30.8808 18.1332 31.2626 18.412C31.6505 18.6847 32.1414 18.8211 32.7354 18.8211Z" fill="#2E2E2E"/>
  <path d="M45.0872 13.1574V21.2301H41.2144V7.26651H44.9054V9.73015H45.069C45.3781 8.91803 45.8963 8.2756 46.6235 7.80288C47.3508 7.32409 48.2326 7.08469 49.269 7.08469C50.2387 7.08469 51.0841 7.29682 51.8054 7.72106C52.5266 8.1453 53.0872 8.75136 53.4872 9.53924C53.8872 10.3211 54.0872 11.2544 54.0872 12.3392V21.2301H50.2144V13.0301C50.2205 12.1756 50.0023 11.5089 49.5599 11.0301C49.1175 10.5453 48.5084 10.3029 47.7326 10.3029C47.2114 10.3029 46.7508 10.415 46.3508 10.6392C45.9569 10.8635 45.6478 11.1908 45.4235 11.6211C45.2054 12.0453 45.0932 12.5574 45.0872 13.1574Z" fill="#2E2E2E"/>
  <path d="M63.2867 7.26651V10.1756H54.8776V7.26651H63.2867ZM56.7867 3.92106H60.6594V16.9392C60.6594 17.2968 60.714 17.5756 60.8231 17.7756C60.9322 17.9695 61.0837 18.1059 61.2776 18.1847C61.4776 18.2635 61.7079 18.3029 61.9685 18.3029C62.1503 18.3029 62.3322 18.2877 62.514 18.2574C62.6958 18.2211 62.8352 18.1938 62.9322 18.1756L63.5413 21.0574C63.3473 21.118 63.0746 21.1877 62.7231 21.2665C62.3716 21.3514 61.9443 21.4029 61.4413 21.4211C60.5079 21.4574 59.6897 21.3332 58.9867 21.0483C58.2897 20.7635 57.7473 20.3211 57.3594 19.7211C56.9716 19.1211 56.7806 18.3635 56.7867 17.4483V3.92106Z" fill="#2E2E2E"/>
  <path d="M67.8113 21.2301H63.5931L70.0204 2.61197H75.0931L81.5113 21.2301H77.2931L72.6294 6.86651H72.484L67.8113 21.2301ZM67.5476 13.912H77.5113V16.9847H67.5476V13.912Z" fill="#2E2E2E"/>
  <path d="M82.4744 21.2301V7.26651H86.3472V21.2301H82.4744Z" fill="#2E2E2E"/>
  <path d="M82.7283 4.77598C83.221 5.26322 83.8116 5.50684 84.5 5.50684C85.1884 5.50684 85.7754 5.26322 86.2609 4.77598C86.7536 4.281 87 3.68936 87 3.00104C87 2.32045 86.7536 1.73653 86.2609 1.2493C85.7754 0.754323 85.1884 0.506836 84.5 0.506836C83.8116 0.506836 83.221 0.754323 82.7283 1.2493C82.2427 1.73653 82 2.32045 82 3.00104C82 3.68936 82.2427 4.281 82.7283 4.77598Z" fill="#72C420"/>
</svg>