<svg xmlns="http://www.w3.org/2000/svg" width="16" height="16" viewBox="0 0 16 16" fill="none">
  <g clip-path="url(#clip0_2301_44803)">
    <path d="M8 16C12.4183 16 16 12.4183 16 8C16 3.58172 12.4183 0 8 0C3.58172 0 0 3.58172 0 8C0 12.4183 3.58172 16 8 16Z" fill="url(#paint0_linear_2301_44803)"/>
    <path fill-rule="evenodd" clip-rule="evenodd" d="M3.62131 7.9156C5.95347 6.8995 7.50862 6.22963 8.28672 5.906C10.5084 4.98194 10.9701 4.82141 11.2709 4.8161C11.3371 4.81494 11.4851 4.83135 11.5809 4.90913C11.7231 5.0245 11.7239 5.27494 11.7082 5.44069C11.5877 6.70569 11.0668 9.77547 10.8018 11.1923C10.6896 11.7918 10.4688 11.9928 10.2551 12.0125C9.7905 12.0552 9.43772 11.7054 8.98775 11.4105C8.28365 10.9489 7.88587 10.6616 7.2024 10.2113C6.41256 9.69075 6.92459 9.40469 7.37472 8.93716C7.49253 8.81481 9.53944 6.95297 9.57906 6.78406C9.58403 6.76294 9.58862 6.68419 9.54184 6.64263C9.49506 6.60106 9.42603 6.61525 9.37622 6.62656C9.30559 6.6426 8.18078 7.38606 6.00178 8.85694C5.6825 9.07619 5.39331 9.183 5.13422 9.17741C4.84856 9.17125 4.29912 9.01591 3.89065 8.88313C3.38965 8.72028 2.99147 8.63416 3.02615 8.3576C3.04422 8.2135 3.24259 8.06619 3.62131 7.9156Z" fill="white"/>
  </g>
  <defs>
    <linearGradient id="paint0_linear_2301_44803" x1="8" y1="0" x2="8" y2="15.875" gradientUnits="userSpaceOnUse">
      <stop stop-color="#2AABEE"/>
      <stop offset="1" stop-color="#229ED9"/>
    </linearGradient>
    <clipPath id="clip0_2301_44803">
      <rect width="16" height="16" fill="white"/>
    </clipPath>
  </defs>
</svg>