<svg xmlns="http://www.w3.org/2000/svg" width="16" height="16" viewBox="0 0 16 16" fill="none">
  <g clip-path="url(#clip0_2301_44809)">
    <path d="M8 16C12.4183 16 16 12.4183 16 8C16 3.58172 12.4183 0 8 0C3.58172 0 0 3.58172 0 8C0 12.4183 3.58172 16 8 16Z" fill="#29A71A"/>
    <path d="M11.5273 4.47268C10.695 3.63204 9.58965 3.11651 8.41069 3.01906C7.23172 2.92162 6.05674 3.24868 5.09769 3.94126C4.13864 4.63384 3.45864 5.64634 3.18036 6.79612C2.90208 7.94591 3.04383 9.15729 3.58004 10.2118L3.05368 12.7672C3.04822 12.7927 3.04806 12.8189 3.05323 12.8444C3.05839 12.8699 3.06876 12.8941 3.08368 12.9154C3.10554 12.9477 3.13675 12.9726 3.17314 12.9868C3.20953 13.0009 3.24936 13.0036 3.28732 12.9945L5.79186 12.4009C6.84337 12.9235 8.04621 13.0561 9.18633 12.7752C10.3265 12.4942 11.3299 11.8179 12.0182 10.8665C12.7064 9.91508 13.0348 8.75037 12.945 7.57958C12.8551 6.40879 12.3527 5.30786 11.5273 4.47268ZM10.7464 10.7054C10.1705 11.2797 9.42895 11.6588 8.62619 11.7892C7.82344 11.9197 6.99998 11.795 6.27186 11.4327L5.92277 11.26L4.38732 11.6236L4.39186 11.6045L4.71004 10.059L4.53914 9.72177C4.1671 8.99111 4.03586 8.16144 4.16421 7.35163C4.29257 6.54181 4.67394 5.79339 5.25368 5.21359C5.98214 4.48535 6.97001 4.07626 8.00004 4.07626C9.03008 4.07626 10.0179 4.48535 10.7464 5.21359C10.7526 5.2207 10.7593 5.22738 10.7664 5.23359C11.4858 5.9637 11.8875 6.94862 11.8837 7.97362C11.88 8.99862 11.4712 9.98057 10.7464 10.7054Z" fill="white"/>
    <path d="M10.61 9.57176C10.4218 9.86813 10.1246 10.2309 9.75093 10.3209C9.09638 10.479 8.09184 10.3263 6.84184 9.16085L6.82638 9.14722C5.72729 8.12813 5.44184 7.27994 5.51093 6.60722C5.54911 6.2254 5.86729 5.87994 6.13548 5.65449C6.17787 5.6183 6.22815 5.59254 6.28229 5.57926C6.33643 5.56598 6.39292 5.56555 6.44725 5.578C6.50158 5.59046 6.55225 5.61546 6.59519 5.651C6.63813 5.68653 6.67217 5.73163 6.69457 5.78267L7.09911 6.69176C7.1254 6.75071 7.13514 6.8157 7.12729 6.87976C7.11945 6.94382 7.09431 7.00454 7.05457 7.0554L6.85002 7.32085C6.80613 7.37566 6.77965 7.44236 6.77398 7.51234C6.76831 7.58233 6.78371 7.65242 6.8182 7.71358C6.93275 7.91449 7.20729 8.20994 7.51184 8.48358C7.85366 8.79267 8.23275 9.0754 8.47275 9.17176C8.53697 9.198 8.60757 9.2044 8.67546 9.19014C8.74335 9.17588 8.80542 9.14162 8.85366 9.09176L9.09093 8.85267C9.13671 8.80753 9.19365 8.77533 9.25593 8.75936C9.31821 8.74339 9.38362 8.74422 9.44548 8.76176L10.4064 9.03449C10.4594 9.05075 10.508 9.07891 10.5484 9.11683C10.5889 9.15475 10.6201 9.20141 10.6398 9.25326C10.6594 9.3051 10.667 9.36075 10.6618 9.41596C10.6566 9.47116 10.6389 9.52445 10.61 9.57176Z" fill="white"/>
  </g>
  <defs>
    <clipPath id="clip0_2301_44809">
      <rect width="16" height="16" fill="white"/>
    </clipPath>
  </defs>
</svg>